<svg xmlns="http://www.w3.org/2000/svg" viewBox="0 0 282.41 237"><defs><style>.cls-1{fill:none;stroke:#191919;}.cls-1,.cls-3{stroke-miterlimit:10;stroke-width:6px;}.cls-2{fill:#60b8ea;opacity:0.11;}.cls-3{fill:#fff;stroke:#000;}</style></defs><title>diagPorImg</title><g id="Capa_2" data-name="Capa 2"><g id="Capa_3" data-name="Capa 3"><rect class="cls-1" x="3" y="3" width="276.41" height="182" rx="6.73"/><rect class="cls-2" x="12.67" y="13.54" width="257.37" height="160.93" rx="3.23"/><rect class="cls-1" x="125.78" y="185" width="32" height="37"/><rect class="cls-1" x="30.78" y="222" width="221" height="12" rx="1.87"/><path class="cls-3" d="M243.62,121.93a7.42,7.42,0,0,1-4.48,10.73,353.8,353.8,0,0,1-97.31,13.55c-30.13,0-81.93-10.86-100.3-14.94a5.12,5.12,0,0,1-3.35-7.51l47-83.89a7.44,7.44,0,0,1,7.41-3.73,395.15,395.15,0,0,0,48.19,2.93,395.71,395.71,0,0,0,49.82-3.13A7.44,7.44,0,0,1,198,39.69Z"/></g></g></svg>