<svg id="b94fe11c-0eb8-406f-a1d9-ebff5bfd142f" xmlns="http://www.w3.org/2000/svg" viewBox="0 0 813.34 739.11"><defs><style>.cls-1{fill:#3f3d56;}.cls-2{fill:#3cb559;}.cls-3{fill:#e5e5e5;}.cls-4{opacity:0.2;isolation:isolate;}.cls-5{fill:#f1f1f1;}.cls-6{fill:#cbcbcb;}</style></defs><title>nature</title><path class="cls-1" d="M722.26,699.89s.62-13,13.37-11.51" transform="translate(0.03)"/><circle class="cls-2" cx="718.69" cy="681.12" r="6.38"/><rect class="cls-1" x="717.65" y="691.86" width="1.8" height="12.6"/><path class="cls-3" d="M289.22,316.92q0,4.79-.31,9.49a143.77,143.77,0,0,1-13.47,52.19c-.06.14-.13.27-.19.4-.36.76-.73,1.52-1.11,2.27a142.32,142.32,0,0,1-7.65,13.5,144.46,144.46,0,0,1-118.56,66.72l1.43,82.24L168,533.91l3.33,6.33-21.84,11.5,2.67,152.74,0,2-14.42,3.21,0-2.05,4.54-246.18a144.16,144.16,0,0,1-102-44.38c-.91-.94-1.81-1.91-2.69-2.87l-.1-.11a144.76,144.76,0,0,1-26.34-40.76l.43.47A144.64,144.64,0,0,1,80.23,187.47l1.51-.74a144.76,144.76,0,0,1,187.53,56.93c.88,1.48,1.73,3,2.55,4.51A143.8,143.8,0,0,1,289.22,316.92Z" transform="translate(0.03)"/><circle class="cls-2" cx="269.78" cy="189.54" r="189.54"/><path class="cls-4" d="M129.8,62.94c-41.15,96.26,3.53,207.66,99.79,248.81a189.54,189.54,0,0,0,216-48.21c-41.14,96.27-152.54,141-248.8,99.8S55.88,210.8,97,114.54A189.56,189.56,0,0,1,129.8,62.94Z" transform="translate(0.03)"/><polygon class="cls-1" points="280.04 717.56 260.68 712.13 260.72 710.05 266.52 394.77 266.81 379.05 266.82 378.59 267.83 323.51 269.3 243.67 269.3 243.66 270.3 189.54 270.83 189.54 271.85 248.17 273.18 324.48 274.13 378.63 274.13 379.03 274.17 381.26 274.17 381.27 276.01 486.82 276.2 497.31 280 715.46 280.04 717.56"/><rect class="cls-1" x="269.23" y="481.66" width="35.41" height="9.37" transform="translate(-193.5 189.67) rotate(-27.77)"/><path class="cls-5" d="M644.22,682.34V624.17S666.89,665.41,644.22,682.34Z" transform="translate(0.03)"/><path class="cls-5" d="M645.62,682.33,602.77,643S648.48,654.18,645.62,682.33Z" transform="translate(0.03)"/><path class="cls-5" d="M201.22,696.34V638.17S223.89,679.41,201.22,696.34Z" transform="translate(0.03)"/><path class="cls-5" d="M202.62,696.33,159.77,657S205.48,668.18,202.62,696.33Z" transform="translate(0.03)"/><path class="cls-5" d="M355.22,738.34V666S383.41,717.29,355.22,738.34Z" transform="translate(0.03)"/><path class="cls-5" d="M357,738.33l-53.29-48.92S360.52,703.32,357,738.33Z" transform="translate(0.03)"/><polygon class="cls-6" points="813.34 729.49 812.79 731.42 644.96 683.62 518.53 711.49 356.84 739.11 356.62 739.05 280.04 717.56 260.68 712.13 201.55 695.53 152.23 706.52 137.81 709.73 106.46 716.72 106.03 714.77 137.84 707.68 152.2 704.48 201.61 693.47 201.85 693.53 260.72 710.05 280 715.46 356.94 737.06 518.14 709.53 645.02 681.56 645.27 681.62 813.34 729.49"/><path class="cls-1" d="M513.05,121.44l12.8-10.24c-9.94-1.09-14,4.33-15.7,8.62-7.76-3.23-16.22,1-16.22,1l25.6,9.29A19.31,19.31,0,0,0,513.05,121.44Z" transform="translate(0.03)"/><path class="cls-1" d="M43.05,117.44l12.8-10.24c-9.94-1.09-14,4.33-15.7,8.62-7.76-3.23-16.22,1-16.22,1l25.6,9.29A19.31,19.31,0,0,0,43.05,117.44Z" transform="translate(0.03)"/><path class="cls-1" d="M485.05,312.44l12.8-10.24c-9.94-1.09-14,4.33-15.7,8.62-7.76-3.23-16.22,1-16.22,1l25.6,9.29A19.31,19.31,0,0,0,485.05,312.44Z" transform="translate(0.03)"/></svg>